<?xml version="1.0" encoding="UTF-8"?>
<svg xmlns="http://www.w3.org/2000/svg" xmlns:xlink="http://www.w3.org/1999/xlink" width="160px" height="112px" viewBox="0 0 159 112" version="1.1">
<defs>
<clipPath id="clip1">
  <path d="M 0.0585938 61 L 159 61 L 159 66 L 0.0585938 66 Z M 0.0585938 61 "/>
</clipPath>
<clipPath id="clip2">
  <path d="M 0.4375 74.019531 L 158.679688 74.019531 L 158.679688 112 L 0.4375 112 Z M 0.4375 74.019531 "/>
</clipPath>
<clipPath id="clip3">
  <path d="M 58.167969 0.046875 L 100.949219 0.046875 L 100.949219 52.613281 L 58.167969 52.613281 Z M 58.167969 0.046875 "/>
</clipPath>
</defs>
<g id="surface1">
<g clip-path="url(#clip1)" clip-rule="nonzero">
<path style=" stroke:none;fill-rule:nonzero;fill:rgb(100%,100%,100%);fill-opacity:1;" d="M 1.632812 61.601562 L 157.484375 61.601562 C 158.363281 61.601562 159.074219 62.316406 159.074219 63.199219 L 159.074219 63.4375 C 159.074219 64.316406 158.363281 65.035156 157.484375 65.035156 L 1.632812 65.035156 C 0.753906 65.035156 0.0429688 64.316406 0.0429688 63.4375 L 0.0429688 63.199219 C 0.0429688 62.316406 0.753906 61.601562 1.632812 61.601562 Z M 1.632812 61.601562 "/>
</g>
<g clip-path="url(#clip2)" clip-rule="nonzero">
<path style=" stroke:none;fill-rule:nonzero;fill:rgb(100%,100%,100%);fill-opacity:1;" d="M 0.441406 75.605469 L 0.441406 74.601562 L 16.476562 74.601562 L 16.476562 75.605469 L 13.585938 75.605469 L 13.585938 110.558594 L 16.476562 110.558594 L 16.476562 111.5625 L 0.441406 111.5625 L 0.441406 110.558594 L 3.335938 110.558594 L 3.335938 75.605469 Z M 38.292969 111.035156 C 40.011719 111.035156 41.105469 110.71875 41.574219 110.085938 C 42.050781 109.449219 42.289062 108.378906 42.289062 106.863281 L 42.289062 96.621094 L 38.925781 96.621094 L 38.925781 95.457031 L 54.066406 95.457031 L 54.066406 96.621094 L 52.015625 96.621094 L 52.015625 111.511719 L 51.226562 111.511719 C 50.597656 110.628906 49.703125 110.191406 48.546875 110.191406 C 48.054688 110.191406 46.589844 110.507812 44.152344 111.140625 C 41.71875 111.773438 39.644531 112.089844 37.925781 112.089844 C 32.214844 112.089844 27.789062 110.542969 24.648438 107.445312 C 21.511719 104.347656 19.945312 99.6875 19.945312 93.472656 C 19.945312 87.261719 21.582031 82.46875 24.855469 79.089844 C 28.136719 75.710938 32.546875 74.019531 38.085938 74.019531 C 40.222656 74.019531 42.367188 74.296875 44.519531 74.84375 C 46.679688 75.386719 47.933594 75.65625 48.28125 75.65625 C 48.632812 75.65625 48.894531 75.578125 49.070312 75.414062 C 49.246094 75.261719 49.441406 74.988281 49.648438 74.601562 L 50.226562 74.601562 L 50.648438 86.058594 L 49.703125 86.058594 C 47.984375 82.644531 46.257812 79.960938 44.519531 78.003906 C 42.789062 76.050781 40.851562 75.078125 38.714844 75.078125 C 33.351562 75.078125 30.671875 80.339844 30.671875 90.863281 L 30.671875 95.035156 C 30.671875 100.316406 31.328125 104.300781 32.636719 106.988281 C 33.957031 109.6875 35.839844 111.035156 38.292969 111.035156 Z M 89.699219 75.605469 L 86.808594 75.605469 L 86.808594 111.5625 L 79.449219 111.5625 L 61.414062 77.398438 L 61.414062 110.558594 L 64.308594 110.558594 L 64.308594 111.5625 L 57.105469 111.5625 L 57.105469 110.558594 L 59.996094 110.558594 L 59.996094 75.605469 L 57.105469 75.605469 L 57.105469 74.601562 L 71.613281 74.601562 L 85.398438 101.109375 L 85.398438 75.605469 L 82.507812 75.605469 L 82.507812 74.601562 L 89.699219 74.601562 Z M 104.734375 75.445312 L 111.882812 91.972656 L 119.347656 75.445312 L 114.039062 75.445312 L 114.039062 74.601562 L 124.394531 74.601562 L 124.394531 75.445312 L 120.925781 75.445312 L 112.988281 93.082031 L 112.988281 110.558594 L 116.195312 110.558594 L 116.195312 111.5625 L 99.53125 111.5625 L 99.53125 110.558594 L 102.738281 110.558594 L 102.738281 94.085938 L 93.800781 75.445312 L 91.328125 75.445312 L 91.328125 74.601562 L 108.152344 74.601562 L 108.152344 75.445312 Z M 127.128906 74.601562 L 158.148438 74.601562 L 158.671875 87.855469 L 157.675781 87.855469 C 156.132812 83.171875 154.765625 79.976562 153.574219 78.265625 C 152.382812 76.5625 150.664062 75.710938 148.421875 75.710938 L 147.789062 75.710938 L 147.789062 110.453125 L 152.257812 110.453125 L 152.257812 111.5625 L 133.070312 111.5625 L 133.070312 110.453125 L 137.539062 110.453125 L 137.539062 75.710938 L 136.855469 75.710938 C 134.613281 75.710938 132.878906 76.597656 131.652344 78.371094 C 130.425781 80.152344 129.074219 83.3125 127.601562 87.855469 L 126.605469 87.855469 Z M 127.128906 74.601562 "/>
</g>
<g clip-path="url(#clip3)" clip-rule="nonzero">
<path style=" stroke:none;fill-rule:nonzero;fill:rgb(100%,100%,100%);fill-opacity:1;" d="M 100.734375 20.515625 C 99.863281 14.390625 95.824219 14.230469 95.824219 14.230469 L 90.277344 14.230469 C 89.167969 14.148438 88.851562 13.671875 88.851562 13.671875 C 88.769531 13.5625 88.691406 13.460938 88.613281 13.359375 L 88.753906 13.457031 C 88.871094 13.292969 91.59375 9.355469 90.414062 5.988281 C 89.792969 4.21875 88.195312 2.949219 85.671875 2.21875 C 85.300781 2.039062 80.152344 -0.457031 76.136719 0.550781 C 75.804688 0.480469 73.507812 0.00390625 70.863281 0 C 70.847656 0 70.835938 0 70.820312 0 C 67.085938 0 64.335938 0.941406 62.855469 2.726562 C 62.367188 2.785156 59.617188 3.222656 59.300781 5.589844 C 57.886719 6.265625 58.195312 7.941406 58.195312 7.941406 C 58.738281 15.222656 59.0625 21.394531 59.238281 26.570312 C 59.804688 43.21875 58.851562 49.574219 58.851562 49.574219 C 58.550781 51.300781 61.167969 51.621094 61.167969 51.621094 C 74.59375 53.851562 84.652344 51.621094 84.652344 51.621094 C 88.335938 51.421875 87.980469 49.554688 87.980469 49.554688 L 87.742188 46.769531 C 87.425781 44.859375 88.535156 44.78125 88.535156 44.78125 C 98.496094 43.621094 100.613281 33.371094 100.910156 26.570312 C 101.058594 23.09375 100.734375 20.515625 100.734375 20.515625 Z M 84.992188 13.832031 C 85.699219 22.183594 83.386719 20.875 83.386719 20.875 C 82.15625 20.074219 82.515625 16.65625 82.515625 16.65625 C 82.742188 14.554688 82.410156 12.160156 82.109375 11.773438 C 80.265625 9.425781 79.820312 13.710938 79.820312 13.710938 C 79.6875 21.90625 77.996094 19.242188 77.996094 19.242188 C 76.808594 17.804688 77.285156 12.835938 77.285156 12.835938 C 77.246094 9.175781 75.066406 9.535156 75.066406 9.535156 C 70.550781 10.011719 67.859375 7.945312 67.859375 7.945312 C 64.847656 8.660156 58.5625 7.980469 58.5625 7.980469 C 58.5625 7.980469 58.164062 6.457031 59.605469 5.683594 C 59.625 5.671875 59.632812 5.660156 59.628906 5.652344 C 59.925781 3.324219 62.921875 3.058594 62.949219 3.058594 L 63.019531 3.050781 L 63.066406 2.996094 C 66.488281 -1.242188 76.003906 0.867188 76.097656 0.890625 L 76.136719 0.898438 L 76.175781 0.886719 C 80.140625 -0.132812 85.484375 2.503906 85.535156 2.527344 L 85.5625 2.539062 C 87.984375 3.238281 89.507812 4.433594 90.097656 6.101562 C 91.160156 9.132812 88.789062 12.804688 88.507812 13.222656 C 85.003906 8.816406 84.992188 13.832031 84.992188 13.832031 Z M 97.988281 26.570312 C 97.910156 28.011719 97.765625 29.046875 97.765625 29.046875 C 95.582031 40.464844 89.40625 41.203125 89.40625 41.203125 C 88.851562 41.359375 87.582031 41.289062 87.1875 40.167969 C 87.144531 40.042969 87.140625 39.820312 87.128906 39.527344 C 87.039062 37.433594 87.339844 31.445312 87.625 26.570312 C 87.847656 22.71875 88.058594 19.558594 88.058594 19.558594 C 88.136719 17.648438 89.800781 17.890625 89.800781 17.890625 C 90.78125 17.703125 95.445312 17.878906 95.445312 17.878906 C 97.984375 18.679688 98.144531 23.53125 97.988281 26.570312 Z M 97.988281 26.570312 "/>
</g>
<path style=" stroke:none;fill-rule:nonzero;fill:rgb(100%,100%,100%);fill-opacity:1;" d="M 104.148438 48.777344 L 123.105469 48.777344 L 123.105469 52.210938 L 104.148438 52.210938 Z M 104.148438 48.777344 "/>
<path style=" stroke:none;fill-rule:nonzero;fill:rgb(100%,100%,100%);fill-opacity:1;" d="M 36.011719 48.777344 L 54.964844 48.777344 L 54.964844 52.210938 L 36.011719 52.210938 Z M 36.011719 48.777344 "/>
</g>
</svg>
