<svg xmlns="http://www.w3.org/2000/svg" version="1.1" xmlns:xlink="http://www.w3.org/1999/xlink" xmlns:svgjs="http://svgjs.dev/svgjs" width="2000" height="1500" viewBox="0 0 2000 1500"><rect width="2000" height="1500" fill="#f1ede1"></rect><g transform="matrix(0.75,0,0,0.75,250.5461951919077,224.30101214574893)"><svg viewBox="0 0 352 247" data-background-color="#f1ede1" preserveAspectRatio="xMidYMid meet" height="1403" width="2000" xmlns="http://www.w3.org/2000/svg" xmlns:xlink="http://www.w3.org/1999/xlink"><g id="tight-bounds" transform="matrix(1,0,0,1,-0.1281738050343506,-0.09999999999999432)"><svg viewBox="0 0 352.2563476100687 247.2" height="247.2" width="352.2563476100687"><g><svg viewBox="0 0 397.4975999999999 278.9485764746836" height="247.2" width="352.2563476100687"><g><rect width="397.4975999999999" height="8.543826472078885" x="0" y="153.29787490827908" fill="#2f5651" opacity="1" stroke-width="0" stroke="transparent" fill-opacity="1" class="rect-qz-0" data-fill-palette-color="secondary" rx="1%" id="qz-0" data-palette-color="#2f5651"></rect></g><g transform="matrix(1,0,0,1,0.9887999999999693,184.20773926538124)"><svg viewBox="0 0 395.52 94.74083720930234" height="94.74083720930234" width="395.52"><g id="textblocktransform"><svg viewBox="0 0 395.52 94.74083720930234" height="94.74083720930234" width="395.52" id="textblock"><g><svg viewBox="0 0 395.52 94.74083720930234" height="94.74083720930234" width="395.52"><g transform="matrix(1,0,0,1,0,0)"><svg width="395.52" viewBox="1.25 -35.55 150.49 36.05" height="94.74083720930234" data-palette-color="#2f5651"><path d="M1.25-34.05L1.25-35 16.5-35 16.5-34.05 13.75-34.05 13.75-0.95 16.5-0.95 16.5 0 1.25 0 1.25-0.95 4-0.95 4-34.05 1.25-34.05ZM37.25-0.5L37.25-0.5Q39.7-0.5 40.37-1.4 41.05-2.3 41.05-4.45L41.05-4.45 41.05-14.15 37.85-14.15 37.85-15.25 52.25-15.25 52.25-14.15 50.3-14.15 50.3-0.05 49.55-0.05Q48.65-1.3 47-1.3L47-1.3Q46.3-1.3 42.82-0.4 39.35 0.5 36.9 0.5L36.9 0.5Q28.75 0.5 24.27-3.9 19.8-8.3 19.8-17.13 19.8-25.95 24.47-30.75 29.15-35.55 37.05-35.55L37.05-35.55Q40.1-35.55 43.17-34.77 46.25-34 46.75-34 47.25-34 47.5-34.23 47.75-34.45 48.05-35L48.05-35 48.6-35 49-24.15 48.1-24.15Q45.65-29 43.17-31.78 40.7-34.55 37.65-34.55L37.65-34.55Q30-34.55 30-19.6L30-19.6 30-15.65Q30-8.15 31.87-4.33 33.75-0.5 37.25-0.5ZM86.14-34.05L83.39-34.05 83.39 0 76.39 0 59.24-32.35 59.24-0.95 61.99-0.95 61.99 0 55.14 0 55.14-0.95 57.89-0.95 57.89-34.05 55.14-34.05 55.14-35 68.94-35 82.05-9.9 82.05-34.05 79.3-34.05 79.3-35 86.14-35 86.14-34.05ZM100.44-34.2L107.24-18.55 114.34-34.2 109.29-34.2 109.29-35 119.14-35 119.14-34.2 115.84-34.2 108.29-17.5 108.29-0.95 111.34-0.95 111.34 0 95.49 0 95.49-0.95 98.54-0.95 98.54-16.55 90.04-34.2 87.69-34.2 87.69-35 103.69-35 103.69-34.2 100.44-34.2ZM121.74-35L151.24-35 151.74-22.45 150.79-22.45Q148.59-29.1 146.89-31.53 145.19-33.95 141.99-33.95L141.99-33.95 141.39-33.95 141.39-1.05 145.64-1.05 145.64 0 127.39 0 127.39-1.05 131.64-1.05 131.64-33.95 130.99-33.95Q127.79-33.95 126.04-31.43 124.29-28.9 122.19-22.45L122.19-22.45 121.24-22.45 121.74-35Z" opacity="1" transform="matrix(1,0,0,1,0,0)" fill="#2f5651" class="wordmark-text-0" data-fill-palette-color="primary" id="text-0"></path></svg></g></svg></g></svg></g></svg></g><g transform="matrix(1,0,0,1,137.2824989964817,0)"><svg viewBox="0 0 122.93260200703651 130.93183702325584" height="130.93183702325584" width="122.93260200703651"><g><svg xmlns="http://www.w3.org/2000/svg" xmlns:xlink="http://www.w3.org/1999/xlink" version="1.1" x="8" y="0" viewBox="16.53992703246194 8.310999999999996 68.09181846849754 83.37388888888891" enable-background="new 0 0 100 100" xml:space="preserve" height="130.93183702325584" width="106.93260200703651" class="icon-icon-0" data-fill-palette-color="accent" id="icon-0"><path d="M84.289 40.82c-1.387-9.707-7.816-9.96-7.816-9.96h-8.824c-1.767-0.127-2.271-0.883-2.271-0.883-0.128-0.174-0.254-0.335-0.379-0.494l0.221 0.153c0.188-0.262 4.521-6.498 2.643-11.833-0.989-2.809-3.527-4.818-7.547-5.974-0.588-0.289-8.785-4.242-15.178-2.644-0.523-0.114-4.182-0.867-8.393-0.874-0.023 0-0.042 0-0.064 0-5.943 0-10.324 1.493-12.68 4.323-0.773 0.093-5.15 0.785-5.655 4.532-2.255 1.073-1.76 3.729-1.76 3.729 0.866 11.542 1.381 21.318 1.662 29.52 0.9 26.382-0.621 36.454-0.621 36.454-0.475 2.74 3.688 3.247 3.688 3.247 21.369 3.53 37.382 0 37.382 0 5.863-0.317 5.297-3.278 5.297-3.278l-0.381-4.413c-0.504-3.026 1.263-3.151 1.263-3.151C80.725 77.438 84.1 61.195 84.568 50.416 84.809 44.905 84.289 40.82 84.289 40.82zM59.232 30.229c1.131 13.238-2.555 11.159-2.555 11.159-1.955-1.263-1.386-6.683-1.386-6.683 0.36-3.327-0.166-7.126-0.647-7.74-2.929-3.717-3.642 3.075-3.642 3.075-0.207 12.985-2.899 8.763-2.899 8.763-1.89-2.278-1.135-10.149-1.135-10.149-0.062-5.8-3.531-5.233-3.531-5.233-7.186 0.755-11.473-2.522-11.473-2.522-4.791 1.136-14.796 0.06-14.796 0.06s-0.632-2.418 1.663-3.643c0.032-0.019 0.042-0.033 0.034-0.048 0.473-3.691 5.242-4.109 5.288-4.112l0.113-0.009 0.074-0.09c5.444-6.716 20.589-3.373 20.74-3.337l0.062 0.013 0.062-0.015C51.516 8.1 60.016 12.276 60.1 12.319l0.045 0.017c3.855 1.104 6.28 3.003 7.215 5.645 1.691 4.8-2.082 10.619-2.528 11.286C59.255 22.284 59.232 30.229 59.232 30.229zM79.917 50.417c-0.121 2.285-0.354 3.926-0.354 3.926-3.471 18.091-13.302 19.259-13.302 19.259-0.884 0.252-2.901 0.14-3.53-1.639-0.068-0.195-0.078-0.548-0.097-1.013-0.141-3.319 0.339-12.808 0.79-20.533 0.355-6.105 0.692-11.111 0.692-11.111 0.126-3.025 2.774-2.646 2.774-2.646 1.558-0.295 8.984-0.017 8.984-0.017C79.915 37.914 80.169 45.6 79.917 50.417z" fill="#ce9bf0" data-fill-palette-color="accent"></path></svg></g></svg></g><g><rect width="47.38091040799297" height="8.543826472078885" y="121.38801055117695" x="260.2151010035182" fill="#2f5651" data-fill-palette-color="secondary"></rect><rect width="47.38091040799297" height="8.543826472078885" y="121.38801055117695" x="89.90158858848874" fill="#2f5651" data-fill-palette-color="secondary"></rect></g></svg></g><defs></defs></svg><rect width="352.2563476100687" height="247.2" fill="none" stroke="none" visibility="hidden"></rect></g></svg></g></svg>