<?xml version="1.0" encoding="UTF-8"?>
<svg xmlns="http://www.w3.org/2000/svg" xmlns:xlink="http://www.w3.org/1999/xlink" width="160px" height="60px" viewBox="0 0 160 60" version="1.1">
<defs>
<clipPath id="clip1">
  <path d="M 0.0585938 33 L 160 33 L 160 35 L 0.0585938 35 Z M 0.0585938 33 "/>
</clipPath>
<clipPath id="clip2">
  <path d="M 0.441406 39.652344 L 159.675781 39.652344 L 159.675781 60 L 0.441406 60 Z M 0.441406 39.652344 "/>
</clipPath>
<clipPath id="clip3">
  <path d="M 58.53125 0.0234375 L 101.582031 0.0234375 L 101.582031 28.183594 L 58.53125 28.183594 Z M 58.53125 0.0234375 "/>
</clipPath>
</defs>
<g id="surface1">
<g clip-path="url(#clip1)" clip-rule="nonzero">
<path style=" stroke:none;fill-rule:nonzero;fill:rgb(18.431373%,33.72549%,31.764706%);fill-opacity:1;" d="M 1.644531 33 L 158.472656 33 C 159.359375 33 160.074219 33.382812 160.074219 33.855469 L 160.074219 33.984375 C 160.074219 34.457031 159.359375 34.839844 158.472656 34.839844 L 1.644531 34.839844 C 0.757812 34.839844 0.0429688 34.457031 0.0429688 33.984375 L 0.0429688 33.855469 C 0.0429688 33.382812 0.757812 33 1.644531 33 Z M 1.644531 33 "/>
</g>
<g clip-path="url(#clip2)" clip-rule="nonzero">
<path style=" stroke:none;fill-rule:nonzero;fill:rgb(18.431373%,33.72549%,31.764706%);fill-opacity:1;" d="M 0.445312 40.503906 L 0.445312 39.964844 L 16.582031 39.964844 L 16.582031 40.503906 L 13.671875 40.503906 L 13.671875 59.226562 L 16.582031 59.226562 L 16.582031 59.765625 L 0.445312 59.765625 L 0.445312 59.226562 L 3.355469 59.226562 L 3.355469 40.503906 Z M 38.535156 59.484375 C 40.261719 59.484375 41.363281 59.3125 41.835938 58.972656 C 42.316406 58.632812 42.554688 58.058594 42.554688 57.25 L 42.554688 51.761719 L 39.171875 51.761719 L 39.171875 51.136719 L 54.40625 51.136719 L 54.40625 51.761719 L 52.34375 51.761719 L 52.34375 59.738281 L 51.550781 59.738281 C 50.914062 59.265625 50.015625 59.03125 48.851562 59.03125 C 48.359375 59.03125 46.882812 59.199219 44.429688 59.539062 C 41.980469 59.878906 39.894531 60.046875 38.164062 60.046875 C 32.417969 60.046875 27.960938 59.21875 24.800781 57.558594 C 21.648438 55.898438 20.074219 53.40625 20.074219 50.074219 C 20.074219 46.75 21.71875 44.179688 25.011719 42.371094 C 28.316406 40.558594 32.75 39.652344 38.324219 39.652344 C 40.476562 39.652344 42.632812 39.800781 44.800781 40.09375 C 46.972656 40.386719 48.234375 40.53125 48.585938 40.53125 C 48.9375 40.53125 49.203125 40.488281 49.378906 40.402344 C 49.554688 40.316406 49.75 40.171875 49.960938 39.964844 L 50.542969 39.964844 L 50.96875 46.101562 L 50.015625 46.101562 C 48.285156 44.273438 46.546875 42.835938 44.800781 41.785156 C 43.058594 40.742188 41.109375 40.21875 38.957031 40.21875 C 33.5625 40.21875 30.863281 43.039062 30.863281 48.675781 L 30.863281 50.910156 C 30.863281 53.742188 31.523438 55.875 32.84375 57.316406 C 34.167969 58.761719 36.066406 59.484375 38.535156 59.484375 Z M 90.261719 40.503906 L 87.351562 40.503906 L 87.351562 59.765625 L 79.945312 59.765625 L 61.800781 41.464844 L 61.800781 59.226562 L 64.710938 59.226562 L 64.710938 59.765625 L 57.464844 59.765625 L 57.464844 59.226562 L 60.375 59.226562 L 60.375 40.503906 L 57.464844 40.503906 L 57.464844 39.964844 L 72.066406 39.964844 L 85.9375 54.164062 L 85.9375 40.503906 L 83.027344 40.503906 L 83.027344 39.964844 L 90.261719 39.964844 Z M 105.394531 40.417969 L 112.585938 49.269531 L 120.101562 40.417969 L 114.757812 40.417969 L 114.757812 39.964844 L 125.179688 39.964844 L 125.179688 40.417969 L 121.6875 40.417969 L 113.699219 49.867188 L 113.699219 59.226562 L 116.925781 59.226562 L 116.925781 59.765625 L 100.15625 59.765625 L 100.15625 59.226562 L 103.382812 59.226562 L 103.382812 50.402344 L 94.390625 40.417969 L 91.902344 40.417969 L 91.902344 39.964844 L 108.832031 39.964844 L 108.832031 40.417969 Z M 127.929688 39.964844 L 159.140625 39.964844 L 159.671875 47.066406 L 158.664062 47.066406 C 157.113281 44.558594 155.738281 42.84375 154.539062 41.929688 C 153.339844 41.015625 151.613281 40.558594 149.355469 40.558594 L 148.71875 40.558594 L 148.71875 59.171875 L 153.214844 59.171875 L 153.214844 59.765625 L 133.90625 59.765625 L 133.90625 59.171875 L 138.402344 59.171875 L 138.402344 40.558594 L 137.714844 40.558594 C 135.460938 40.558594 133.714844 41.035156 132.480469 41.984375 C 131.246094 42.9375 129.886719 44.632812 128.40625 47.066406 L 127.402344 47.066406 Z M 127.929688 39.964844 "/>
</g>
<g clip-path="url(#clip3)" clip-rule="nonzero">
<path style=" stroke:none;fill-rule:nonzero;fill:rgb(80.784314%,60.784314%,94.117647%);fill-opacity:1;" d="M 101.367188 10.988281 C 100.488281 7.707031 96.425781 7.621094 96.425781 7.621094 L 90.847656 7.621094 C 89.730469 7.578125 89.410156 7.324219 89.410156 7.324219 C 89.328125 7.265625 89.25 7.210938 89.171875 7.15625 L 89.3125 7.210938 C 89.429688 7.121094 92.167969 5.011719 90.980469 3.207031 C 90.355469 2.257812 88.75 1.582031 86.210938 1.1875 C 85.839844 1.089844 80.65625 -0.246094 76.613281 0.296875 C 76.285156 0.257812 73.96875 0.00390625 71.308594 0 C 71.292969 0 71.28125 0 71.265625 0 C 67.507812 0 64.738281 0.503906 63.25 1.460938 C 62.761719 1.492188 59.992188 1.726562 59.675781 2.992188 C 58.25 3.355469 58.5625 4.253906 58.5625 4.253906 C 59.109375 8.15625 59.433594 11.460938 59.613281 14.234375 C 60.183594 23.152344 59.21875 26.558594 59.21875 26.558594 C 58.917969 27.484375 61.550781 27.65625 61.550781 27.65625 C 75.0625 28.847656 85.1875 27.65625 85.1875 27.65625 C 88.894531 27.546875 88.535156 26.546875 88.535156 26.546875 L 88.292969 25.054688 C 87.976562 24.03125 89.09375 23.988281 89.09375 23.988281 C 99.113281 23.367188 101.246094 17.878906 101.542969 14.234375 C 101.695312 12.371094 101.367188 10.988281 101.367188 10.988281 Z M 85.523438 7.410156 C 86.238281 11.886719 83.910156 11.183594 83.910156 11.183594 C 82.671875 10.753906 83.03125 8.921875 83.03125 8.921875 C 83.261719 7.796875 82.929688 6.515625 82.625 6.304688 C 80.773438 5.050781 80.320312 7.347656 80.320312 7.347656 C 80.191406 11.734375 78.488281 10.308594 78.488281 10.308594 C 77.292969 9.539062 77.769531 6.878906 77.769531 6.878906 C 77.730469 4.917969 75.539062 5.109375 75.539062 5.109375 C 70.996094 5.363281 68.285156 4.253906 68.285156 4.253906 C 65.253906 4.640625 58.929688 4.277344 58.929688 4.277344 C 58.929688 4.277344 58.53125 3.457031 59.980469 3.042969 C 60 3.039062 60.007812 3.03125 60.003906 3.027344 C 60.300781 1.78125 63.316406 1.640625 63.347656 1.636719 L 63.417969 1.636719 L 63.464844 1.605469 C 66.90625 -0.664062 76.480469 0.464844 76.578125 0.476562 L 76.617188 0.480469 L 76.65625 0.476562 C 80.644531 -0.0703125 86.019531 1.339844 86.074219 1.355469 L 86.101562 1.359375 C 88.539062 1.734375 90.074219 2.375 90.664062 3.269531 C 91.734375 4.890625 89.347656 6.859375 89.066406 7.085938 C 85.539062 4.722656 85.523438 7.410156 85.523438 7.410156 Z M 98.601562 14.234375 C 98.527344 15.007812 98.378906 15.5625 98.378906 15.5625 C 96.183594 21.675781 89.96875 22.074219 89.96875 22.074219 C 89.410156 22.15625 88.132812 22.121094 87.738281 21.519531 C 87.695312 21.453125 87.6875 21.332031 87.675781 21.175781 C 87.585938 20.054688 87.890625 16.847656 88.175781 14.234375 C 88.398438 12.171875 88.613281 10.476562 88.613281 10.476562 C 88.691406 9.457031 90.367188 9.582031 90.367188 9.582031 C 91.351562 9.484375 96.046875 9.578125 96.046875 9.578125 C 98.601562 10.007812 98.761719 12.605469 98.601562 14.234375 Z M 98.601562 14.234375 "/>
</g>
<path style=" stroke:none;fill-rule:nonzero;fill:rgb(18.431373%,33.72549%,31.764706%);fill-opacity:1;" d="M 104.804688 26.132812 L 123.878906 26.132812 L 123.878906 27.96875 L 104.804688 27.96875 Z M 104.804688 26.132812 "/>
<path style=" stroke:none;fill-rule:nonzero;fill:rgb(18.431373%,33.72549%,31.764706%);fill-opacity:1;" d="M 36.238281 26.132812 L 55.3125 26.132812 L 55.3125 27.96875 L 36.238281 27.96875 Z M 36.238281 26.132812 "/>
</g>
</svg>
